<?xml version="1.0" encoding="UTF-8"?>
<!--
  OmniGrid UI sprite — single source of truth for every <symbol id="icon-..."/>
  consumed by the SPA via <use href="/img/ui-sprite.svg#icon-..."/>.

  Same-origin reference preserves currentColor inheritance: an icon's
  stroke / fill picks up the surrounding text colour through the
  <symbol>'s child <path>s (which carry no stroke-* attrs of their own).

  Pre-2026-05-03 these defs lived inline at the top of static/index.html;
  extracting to this file shrinks the HTML payload, browser-caches the
  sprite separately, and lets login.html share the same icon set without
  duplicating 100+ lines.

  Adding a new icon: add a <symbol id="icon-name" viewBox="0 0 24 24"
  fill="none" stroke="currentColor" stroke-width="2" stroke-linecap="round"
  stroke-linejoin="round">...</symbol> block here (Lucide presentation
  attrs preferred so callers only need width/height on the <svg> wrapper).

  When migrating an inline icon, REMEMBER to also add a corresponding
  preload <link> for any new SVG file referenced from a different sprite
  (we ship one sprite today; future per-tab sprites can split if this
  one bloats past ~50 KB).
-->
<svg xmlns="http://www.w3.org/2000/svg" width="0" height="0" style="position:absolute" aria-hidden="true">
  <defs>
    <!-- Each symbol bakes the canonical Lucide presentation attrs
         (fill="none", stroke="currentColor", stroke-width="2",
         stroke-linecap="round", stroke-linejoin="round") so callers
         only need width/height/class on the <svg> wrapper. To override
         stroke-width (e.g. 2.2 / 2.4 / 3) the caller sets it on the
         wrapper — presentation attrs inherit through <use> into the
         symbol's children, which carry no stroke-* attrs of their own. -->
    <!-- Lucide: copy -->
    <symbol id="icon-copy" viewBox="0 0 24 24" fill="none" stroke="currentColor" stroke-width="2" stroke-linecap="round" stroke-linejoin="round"><rect x="9" y="9" width="13" height="13" rx="2" ry="2"/><path d="M5 15H4a2 2 0 0 1-2-2V4a2 2 0 0 1 2-2h9a2 2 0 0 1 2 2v1"/></symbol>
    <!-- Lucide: check -->
    <symbol id="icon-check" viewBox="0 0 24 24" fill="none" stroke="currentColor" stroke-width="2" stroke-linecap="round" stroke-linejoin="round"><polyline points="20 6 9 17 4 12"/></symbol>
    <!-- Lucide: pause (two vertical bars). Used by the host-drawer Timeline for `provider_paused` events to disambiguate from the alert-triangle previously used. -->
    <symbol id="icon-pause" viewBox="0 0 24 24" fill="none" stroke="currentColor" stroke-width="2" stroke-linecap="round" stroke-linejoin="round"><rect x="6" y="4" width="4" height="16"/><rect x="14" y="4" width="4" height="16"/></symbol>
    <!-- Lucide: history (clock with counter-clockwise arrow). Used by the host-drawer Timeline for `op` events (operations / actions). -->
    <symbol id="icon-history" viewBox="0 0 24 24" fill="none" stroke="currentColor" stroke-width="2" stroke-linecap="round" stroke-linejoin="round"><path d="M3 12a9 9 0 1 0 3-6.7"/><polyline points="3 4 3 10 9 10"/><polyline points="12 7 12 12 15 14"/></symbol>
    <!-- Lucide: chevron-right (RTL-flippable via .flip-rtl on caller) -->
    <symbol id="icon-chevron-right" viewBox="0 0 24 24" fill="none" stroke="currentColor" stroke-width="2" stroke-linecap="round" stroke-linejoin="round"><polyline points="9 18 15 12 9 6"/></symbol>
    <!-- Lucide: chevron-down -->
    <symbol id="icon-chevron-down" viewBox="0 0 24 24" fill="none" stroke="currentColor" stroke-width="2" stroke-linecap="round" stroke-linejoin="round"><polyline points="6 9 12 15 18 9"/></symbol>
    <!-- Lucide: chevron-up -->
    <symbol id="icon-chevron-up" viewBox="0 0 24 24" fill="none" stroke="currentColor" stroke-width="2" stroke-linecap="round" stroke-linejoin="round"><polyline points="18 15 12 9 6 15"/></symbol>
    <!-- Lucide: refresh-ccw (rotated arrows around clockwise loop) -->
    <symbol id="icon-refresh-ccw" viewBox="0 0 24 24" fill="none" stroke="currentColor" stroke-width="2" stroke-linecap="round" stroke-linejoin="round"><polyline points="23 4 23 10 17 10"/><polyline points="1 20 1 14 7 14"/><path d="M3.51 9a9 9 0 0 1 14.85-3.36L23 10M1 14l4.64 4.36A9 9 0 0 0 20.49 15"/></symbol>
    <!-- Lucide: rotate-cw (single arrow looping clockwise) -->
    <symbol id="icon-rotate-cw" viewBox="0 0 24 24" fill="none" stroke="currentColor" stroke-width="2" stroke-linecap="round" stroke-linejoin="round"><path d="M3 12a9 9 0 0 1 15.5-6.36L22 8"/><path d="M22 3v5h-5"/><path d="M22 12a9 9 0 0 1-15.5 6.36L3 16"/><path d="M2 21v-5h5"/></symbol>
    <!-- Theme-toggle icons. Sun (light) / moon (dark) come from Lucide
         and use stroke="currentColor"; theme-auto is a split-circle
         (svgrepo dark-mode.svg, fill="currentColor") so the three
         states read as visually distinct in the topbar toggle. -->
    <symbol id="icon-theme-sun" viewBox="0 0 24 24" fill="none" stroke="currentColor" stroke-width="2" stroke-linecap="round" stroke-linejoin="round"><circle cx="12" cy="12" r="4"/><path d="M12 2v2M12 20v2M4.93 4.93l1.41 1.41M17.66 17.66l1.41 1.41M2 12h2M20 12h2M4.93 19.07l1.41-1.41M17.66 6.34l1.41-1.41"/></symbol>
    <symbol id="icon-theme-moon" viewBox="0 0 24 24" fill="none" stroke="currentColor" stroke-width="2" stroke-linecap="round" stroke-linejoin="round"><path d="M21 12.79A9 9 0 1 1 11.21 3 7 7 0 0 0 21 12.79z"/></symbol>
    <symbol id="icon-theme-auto" viewBox="0 0 24 24" fill="currentColor"><path d="M12 16C14.2091 16 16 14.2091 16 12C16 9.79086 14.2091 8 12 8V16Z"/><path fill-rule="evenodd" clip-rule="evenodd" d="M12 2C6.47715 2 2 6.47715 2 12C2 17.5228 6.47715 22 12 22C17.5228 22 22 17.5228 22 12C22 6.47715 17.5228 2 12 2ZM12 4V8C9.79086 8 8 9.79086 8 12C8 14.2091 9.79086 16 12 16V20C16.4183 20 20 16.4183 20 12C20 7.58172 16.4183 4 12 4Z"/></symbol>
    <!-- Lucide: trash -->
    <symbol id="icon-trash" viewBox="0 0 24 24" fill="none" stroke="currentColor" stroke-width="2" stroke-linecap="round" stroke-linejoin="round"><path d="M3 6h18M8 6V4a2 2 0 0 1 2-2h4a2 2 0 0 1 2 2v2m3 0v14a2 2 0 0 1-2 2H7a2 2 0 0 1-2-2V6h14z"/></symbol>
    <!-- Lucide: info (circle with i) -->
    <symbol id="icon-info" viewBox="0 0 24 24" fill="none" stroke="currentColor" stroke-width="2" stroke-linecap="round" stroke-linejoin="round"><circle cx="12" cy="12" r="10"/><line x1="12" y1="8" x2="12" y2="12"/><line x1="12" y1="16" x2="12.01" y2="16"/></symbol>
    <!-- Lucide: clock -->
    <symbol id="icon-clock" viewBox="0 0 24 24" fill="none" stroke="currentColor" stroke-width="2" stroke-linecap="round" stroke-linejoin="round"><circle cx="12" cy="12" r="10"/><polyline points="12 6 12 12 16 14"/></symbol>
    <!-- Lucide: zap (lightning bolt). Used for the host probe-timeout badge to disambiguate from the stale-snapshot clock badge. -->
    <symbol id="icon-zap" viewBox="0 0 24 24" fill="none" stroke="currentColor" stroke-width="2" stroke-linecap="round" stroke-linejoin="round"><polygon points="13 2 3 14 12 14 11 22 21 10 12 10 13 2"/></symbol>
    <!-- Lucide: help-circle -->
    <symbol id="icon-help-circle" viewBox="0 0 24 24" fill="none" stroke="currentColor" stroke-width="2" stroke-linecap="round" stroke-linejoin="round"><circle cx="12" cy="12" r="10"/><path d="M9.09 9a3 3 0 0 1 5.83 1c0 2-3 3-3 3"/><path d="M12 17h.01"/></symbol>
    <!-- Lucide: alert-triangle -->
    <symbol id="icon-alert-triangle" viewBox="0 0 24 24" fill="none" stroke="currentColor" stroke-width="2" stroke-linecap="round" stroke-linejoin="round"><path d="M10.29 3.86L1.82 18a2 2 0 0 0 1.71 3h16.94a2 2 0 0 0 1.71-3L13.71 3.86a2 2 0 0 0-3.42 0z"/><line x1="12" y1="9" x2="12" y2="13"/><line x1="12" y1="17" x2="12.01" y2="17"/></symbol>
    <!-- Lucide: search -->
    <symbol id="icon-search" viewBox="0 0 24 24" fill="none" stroke="currentColor" stroke-width="2" stroke-linecap="round" stroke-linejoin="round"><circle cx="11" cy="11" r="8"/><line x1="21" y1="21" x2="16.65" y2="16.65"/></symbol>
    <!-- Lucide: lock -->
    <symbol id="icon-lock" viewBox="0 0 24 24" fill="none" stroke="currentColor" stroke-width="2" stroke-linecap="round" stroke-linejoin="round"><rect x="3" y="11" width="18" height="11" rx="2"/><path d="M7 11V7a5 5 0 0 1 10 0v4"/></symbol>
    <!-- Lucide: arrow-up-right (small "open in new tab" hint, no surrounding box) -->
    <symbol id="icon-arrow-up-right" viewBox="0 0 24 24" fill="none" stroke="currentColor" stroke-width="2" stroke-linecap="round" stroke-linejoin="round"><polyline points="15 3 21 3 21 9"/><line x1="10" y1="14" x2="21" y2="3"/></symbol>
    <!-- Lucide: loader (8-spoke spinner — animated by .collecting-block svg in style.css) -->
    <symbol id="icon-loader" viewBox="0 0 24 24" fill="none" stroke="currentColor" stroke-width="2" stroke-linecap="round" stroke-linejoin="round"><path d="M12 2v4M12 18v4M4.93 4.93l2.83 2.83M16.24 16.24l2.83 2.83M2 12h4M18 12h4M4.93 19.07l2.83-2.83M16.24 7.76l2.83-2.83"/></symbol>
    <!-- admin-tab + profile-tab + user-menu icons. All Lucide
         shapes; viewBox / stroke / linecap match the existing symbols
         so the wrapper attrs apply uniformly through <use>. -->
    <symbol id="icon-user" viewBox="0 0 24 24" fill="none" stroke="currentColor" stroke-width="2" stroke-linecap="round" stroke-linejoin="round"><path d="M20 21v-2a4 4 0 0 0-4-4H8a4 4 0 0 0-4 4v2"/><circle cx="12" cy="7" r="4"/></symbol>
    <symbol id="icon-users" viewBox="0 0 24 24" fill="none" stroke="currentColor" stroke-width="2" stroke-linecap="round" stroke-linejoin="round"><path d="M16 21v-2a4 4 0 0 0-4-4H6a4 4 0 0 0-4 4v2"/><circle cx="9" cy="7" r="4"/><path d="M22 21v-2a4 4 0 0 0-3-3.87"/><path d="M16 3.13a4 4 0 0 1 0 7.75"/></symbol>
    <symbol id="icon-settings" viewBox="0 0 24 24" fill="none" stroke="currentColor" stroke-width="2" stroke-linecap="round" stroke-linejoin="round"><circle cx="12" cy="12" r="3"/><path d="M19.4 15a1.65 1.65 0 0 0 .33 1.82l.06.06a2 2 0 1 1-2.83 2.83l-.06-.06a1.65 1.65 0 0 0-1.82-.33 1.65 1.65 0 0 0-1 1.51V21a2 2 0 0 1-4 0v-.09A1.65 1.65 0 0 0 9 19.4a1.65 1.65 0 0 0-1.82.33l-.06.06a2 2 0 1 1-2.83-2.83l.06-.06a1.65 1.65 0 0 0 .33-1.82 1.65 1.65 0 0 0-1.51-1H3a2 2 0 0 1 0-4h.09A1.65 1.65 0 0 0 4.6 9a1.65 1.65 0 0 0-.33-1.82l-.06-.06a2 2 0 1 1 2.83-2.83l.06.06a1.65 1.65 0 0 0 1.82.33H9a1.65 1.65 0 0 0 1-1.51V3a2 2 0 0 1 4 0v.09a1.65 1.65 0 0 0 1 1.51 1.65 1.65 0 0 0 1.82-.33l.06-.06a2 2 0 1 1 2.83 2.83l-.06.06a1.65 1.65 0 0 0-.33 1.82V9a1.65 1.65 0 0 0 1.51 1H21a2 2 0 0 1 0 4h-.09a1.65 1.65 0 0 0-1.51 1z"/></symbol>
    <symbol id="icon-shield" viewBox="0 0 24 24" fill="none" stroke="currentColor" stroke-width="2" stroke-linecap="round" stroke-linejoin="round"><path d="M12 22s8-4 8-10V5l-8-3-8 3v7c0 6 8 10 8 10z"/></symbol>
    <symbol id="icon-globe" viewBox="0 0 24 24" fill="none" stroke="currentColor" stroke-width="2" stroke-linecap="round" stroke-linejoin="round"><circle cx="12" cy="12" r="10"/><line x1="2" y1="12" x2="22" y2="12"/><path d="M12 2a15.3 15.3 0 0 1 4 10 15.3 15.3 0 0 1-4 10 15.3 15.3 0 0 1-4-10 15.3 15.3 0 0 1 4-10z"/></symbol>
    <symbol id="icon-log-out" viewBox="0 0 24 24" fill="none" stroke="currentColor" stroke-width="2" stroke-linecap="round" stroke-linejoin="round"><path d="M9 21H5a2 2 0 0 1-2-2V5a2 2 0 0 1 2-2h4"/><polyline points="16 17 21 12 16 7"/><line x1="21" y1="12" x2="9" y2="12"/></symbol>
    <symbol id="icon-sliders" viewBox="0 0 24 24" fill="none" stroke="currentColor" stroke-width="2" stroke-linecap="round" stroke-linejoin="round"><line x1="4" y1="21" x2="4" y2="14"/><line x1="4" y1="10" x2="4" y2="3"/><line x1="12" y1="21" x2="12" y2="12"/><line x1="12" y1="8" x2="12" y2="3"/><line x1="20" y1="21" x2="20" y2="16"/><line x1="20" y1="12" x2="20" y2="3"/><line x1="1" y1="14" x2="7" y2="14"/><line x1="9" y1="8" x2="15" y2="8"/><line x1="17" y1="16" x2="23" y2="16"/></symbol>
    <symbol id="icon-monitor" viewBox="0 0 24 24" fill="none" stroke="currentColor" stroke-width="2" stroke-linecap="round" stroke-linejoin="round"><rect x="2" y="3" width="20" height="14" rx="2" ry="2"/><line x1="8" y1="21" x2="16" y2="21"/><line x1="12" y1="17" x2="12" y2="21"/></symbol>
    <symbol id="icon-key" viewBox="0 0 24 24" fill="none" stroke="currentColor" stroke-width="2" stroke-linecap="round" stroke-linejoin="round"><path d="M21 2l-2 2m-7.61 7.61a5.5 5.5 0 1 1-7.778 7.778 5.5 5.5 0 0 1 7.777-7.777zm0 0L15.5 7.5m0 0l3 3L22 7l-3-3m-3.5 3.5L19 4"/></symbol>
    <symbol id="icon-bell" viewBox="0 0 24 24" fill="none" stroke="currentColor" stroke-width="2" stroke-linecap="round" stroke-linejoin="round"><path d="M18 8a6 6 0 0 0-12 0c0 7-3 9-3 9h18s-3-2-3-9"/><path d="M13.73 21a2 2 0 0 1-3.46 0"/></symbol>
    <symbol id="icon-message-circle" viewBox="0 0 24 24" fill="none" stroke="currentColor" stroke-width="2" stroke-linecap="round" stroke-linejoin="round"><path d="M21 11.5a8.38 8.38 0 0 1-.9 3.8 8.5 8.5 0 0 1-7.6 4.7 8.38 8.38 0 0 1-3.8-.9L3 21l1.9-5.7a8.38 8.38 0 0 1-.9-3.8 8.5 8.5 0 0 1 4.7-7.6 8.38 8.38 0 0 1 3.8-.9h.5a8.48 8.48 0 0 1 8 8v.5z"/></symbol>
    <symbol id="icon-x" viewBox="0 0 24 24" fill="none" stroke="currentColor" stroke-width="2" stroke-linecap="round" stroke-linejoin="round"><line x1="18" y1="6" x2="6" y2="18"/><line x1="6" y1="6" x2="18" y2="18"/></symbol>
    <symbol id="icon-box" viewBox="0 0 24 24" fill="none" stroke="currentColor" stroke-width="2" stroke-linecap="round" stroke-linejoin="round"><path d="M21 16V8a2 2 0 0 0-1-1.73l-7-4a2 2 0 0 0-2 0l-7 4A2 2 0 0 0 3 8v8a2 2 0 0 0 1 1.73l7 4a2 2 0 0 0 2 0l7-4A2 2 0 0 0 21 16z"/><polyline points="3.27 6.96 12 12.01 20.73 6.96"/><line x1="12" y1="22.08" x2="12" y2="12"/></symbol>
    <symbol id="icon-id-card" viewBox="0 0 24 24" fill="none" stroke="currentColor" stroke-width="2" stroke-linecap="round" stroke-linejoin="round"><rect x="2" y="4" width="20" height="16" rx="2"/><path d="M7 15h0M2 9.5h20"/><path d="M14 14h6M14 10h6"/></symbol>
    <symbol id="icon-activity" viewBox="0 0 24 24" fill="none" stroke="currentColor" stroke-width="2" stroke-linecap="round" stroke-linejoin="round"><polyline points="22 12 18 12 15 21 9 3 6 12 2 12"/></symbol>
    <symbol id="icon-server" viewBox="0 0 24 24" fill="none" stroke="currentColor" stroke-width="2" stroke-linecap="round" stroke-linejoin="round"><rect x="2" y="2" width="20" height="8" rx="2" ry="2"/><rect x="2" y="14" width="20" height="8" rx="2" ry="2"/><line x1="6" y1="6" x2="6.01" y2="6"/><line x1="6" y1="18" x2="6.01" y2="18"/></symbol>
    <symbol id="icon-cpu" viewBox="0 0 24 24" fill="none" stroke="currentColor" stroke-width="2" stroke-linecap="round" stroke-linejoin="round"><rect x="4" y="4" width="16" height="16" rx="2" ry="2"/><rect x="9" y="9" width="6" height="6"/><line x1="9" y1="1" x2="9" y2="4"/><line x1="15" y1="1" x2="15" y2="4"/><line x1="9" y1="20" x2="9" y2="23"/><line x1="15" y1="20" x2="15" y2="23"/><line x1="20" y1="9" x2="23" y2="9"/><line x1="20" y1="14" x2="23" y2="14"/><line x1="1" y1="9" x2="4" y2="9"/><line x1="1" y1="14" x2="4" y2="14"/></symbol>
    <symbol id="icon-layout-dashboard" viewBox="0 0 24 24" fill="none" stroke="currentColor" stroke-width="2" stroke-linecap="round" stroke-linejoin="round"><rect width="7" height="9" x="3" y="3" rx="1"/><rect width="7" height="5" x="14" y="3" rx="1"/><rect width="7" height="9" x="14" y="12" rx="1"/><rect width="7" height="5" x="3" y="16" rx="1"/></symbol>
    <symbol id="icon-trending-up" viewBox="0 0 24 24" fill="none" stroke="currentColor" stroke-width="2" stroke-linecap="round" stroke-linejoin="round"><polyline points="22 7 13.5 15.5 8.5 10.5 2 17"/><polyline points="16 7 22 7 22 13"/></symbol>
    <symbol id="icon-database" viewBox="0 0 24 24" fill="none" stroke="currentColor" stroke-width="2" stroke-linecap="round" stroke-linejoin="round"><ellipse cx="12" cy="5" rx="9" ry="3"/><path d="M21 12c0 1.66-4 3-9 3s-9-1.34-9-3"/><path d="M3 5v14c0 1.66 4 3 9 3s9-1.34 9-3V5"/></symbol>
    <symbol id="icon-layers" viewBox="0 0 24 24" fill="none" stroke="currentColor" stroke-width="2" stroke-linecap="round" stroke-linejoin="round"><polygon points="12 2 2 7 12 12 22 7 12 2"/><polyline points="2 17 12 22 22 17"/><polyline points="2 12 12 17 22 12"/></symbol>
    <symbol id="icon-terminal" viewBox="0 0 24 24" fill="none" stroke="currentColor" stroke-width="2" stroke-linecap="round" stroke-linejoin="round"><polyline points="4 17 10 11 4 5"/><line x1="12" y1="19" x2="20" y2="19"/></symbol>
    <symbol id="icon-package" viewBox="0 0 24 24" fill="none" stroke="currentColor" stroke-width="2" stroke-linecap="round" stroke-linejoin="round"><line x1="16.5" y1="9.4" x2="7.5" y2="4.21"/><path d="M21 16V8a2 2 0 0 0-1-1.73l-7-4a2 2 0 0 0-2 0l-7 4A2 2 0 0 0 3 8v8a2 2 0 0 0 1 1.73l7 4a2 2 0 0 0 2 0l7-4A2 2 0 0 0 21 16z"/><polyline points="3.27 6.96 12 12.01 20.73 6.96"/><line x1="12" y1="22.08" x2="12" y2="12"/></symbol>
    <symbol id="icon-calendar" viewBox="0 0 24 24" fill="none" stroke="currentColor" stroke-width="2" stroke-linecap="round" stroke-linejoin="round"><rect x="3" y="4" width="18" height="18" rx="2" ry="2"/><line x1="16" y1="2" x2="16" y2="6"/><line x1="8" y1="2" x2="8" y2="6"/><line x1="3" y1="10" x2="21" y2="10"/></symbol>
    <symbol id="icon-archive" viewBox="0 0 24 24" fill="none" stroke="currentColor" stroke-width="2" stroke-linecap="round" stroke-linejoin="round"><polyline points="21 8 21 21 3 21 3 8"/><rect x="1" y="3" width="22" height="5"/><line x1="10" y1="12" x2="14" y2="12"/></symbol>
    <symbol id="icon-file-text" viewBox="0 0 24 24" fill="none" stroke="currentColor" stroke-width="2" stroke-linecap="round" stroke-linejoin="round"><path d="M14 2H6a2 2 0 0 0-2 2v16a2 2 0 0 0 2 2h12a2 2 0 0 0 2-2V8z"/><polyline points="14 2 14 8 20 8"/><line x1="16" y1="13" x2="8" y2="13"/><line x1="16" y1="17" x2="8" y2="17"/><polyline points="10 9 9 9 8 9"/></symbol>
    <symbol id="icon-braces" viewBox="0 0 24 24" fill="none" stroke="currentColor" stroke-width="2" stroke-linecap="round" stroke-linejoin="round"><path d="M8 3H7a2 2 0 0 0-2 2v4a2 2 0 0 1-2 2 2 2 0 0 1 2 2v4a2 2 0 0 0 2 2h1"/><path d="M16 21h1a2 2 0 0 0 2-2v-4a2 2 0 0 1 2-2 2 2 0 0 1-2-2V5a2 2 0 0 0-2-2h-1"/></symbol>
    <symbol id="icon-tag" viewBox="0 0 24 24" fill="none" stroke="currentColor" stroke-width="2" stroke-linecap="round" stroke-linejoin="round"><path d="M20.59 13.41l-7.17 7.17a2 2 0 0 1-2.83 0L2 12V2h10l8.59 8.59a2 2 0 0 1 0 2.82z"/><line x1="7" y1="7" x2="7.01" y2="7"/></symbol>
    <symbol id="icon-pin" viewBox="0 0 24 24" fill="none" stroke="currentColor" stroke-width="2" stroke-linecap="round" stroke-linejoin="round"><path d="M12 17v5"/><path d="M9 10.76a2 2 0 0 1-1.11 1.79l-1.78.9A2 2 0 0 0 5 15.24V16a1 1 0 0 0 1 1h12a1 1 0 0 0 1-1v-.76a2 2 0 0 0-1.11-1.79l-1.78-.9A2 2 0 0 1 15 10.76V7a1 1 0 0 1 1-1 2 2 0 0 0 0-4H8a2 2 0 0 0 0 4 1 1 0 0 1 1 1z"/></symbol>
    <symbol id="icon-pin-off" viewBox="0 0 24 24" fill="none" stroke="currentColor" stroke-width="2" stroke-linecap="round" stroke-linejoin="round"><path d="M12 17v5"/><path d="M15 9.34V7a1 1 0 0 1 1-1 2 2 0 0 0 0-4H7.89"/><path d="m2 2 20 20"/><path d="M9 9v1.76a2 2 0 0 1-1.11 1.79l-1.78.9A2 2 0 0 0 5 15.24V16a1 1 0 0 0 1 1h11"/></symbol>
    <symbol id="icon-bug" viewBox="0 0 24 24" fill="none" stroke="currentColor" stroke-width="2" stroke-linecap="round" stroke-linejoin="round"><rect x="8" y="6" width="8" height="14" rx="4"/><path d="M19 7l-3 2"/><path d="M5 7l3 2"/><path d="M19 13h-3"/><path d="M5 13h3"/><path d="M19 19l-3-2"/><path d="M5 19l3-2"/><path d="M9 6V3"/><path d="M15 6V3"/></symbol>
    <!-- Lucide: arrow-down-to-line (downward arrow with floor — visual metaphor for "lower bound / minimum"). Used in Admin → Process tunables bounds chips. -->
    <symbol id="icon-arrow-down-to-line" viewBox="0 0 24 24" fill="none" stroke="currentColor" stroke-width="2" stroke-linecap="round" stroke-linejoin="round"><path d="M12 17V3"/><path d="m6 11 6 6 6-6"/><path d="M19 21H5"/></symbol>
    <!-- Lucide: arrow-up-to-line (upward arrow with ceiling — visual metaphor for "upper bound / maximum"). -->
    <symbol id="icon-arrow-up-to-line" viewBox="0 0 24 24" fill="none" stroke="currentColor" stroke-width="2" stroke-linecap="round" stroke-linejoin="round"><path d="M5 3h14"/><path d="m18 13-6-6-6 6"/><path d="M12 7v14"/></symbol>
    <!-- Lucide: target (concentric circles + center dot — visual metaphor for "default value / what you'd land on if you cleared the override"). -->
    <symbol id="icon-target" viewBox="0 0 24 24" fill="none" stroke="currentColor" stroke-width="2" stroke-linecap="round" stroke-linejoin="round"><circle cx="12" cy="12" r="10"/><circle cx="12" cy="12" r="6"/><circle cx="12" cy="12" r="2"/></symbol>

    <!-- Brand: Portainer mono. Path geometry preserved from the
         official brand SVG; both shapes use `currentColor` so the
         silhouette adapts to the surrounding text colour on either
         theme. The accent block keeps a 0.55 opacity to preserve the
         visual hierarchy of the original (letter + accent). Used in
         the Admin → Portainer header.

         Note: the brand-coloured portainer.svg + portainer-dark.svg
         remain in static/img/icons/ for the brand-icon resolver
         (stack / service rows whose name matches "portainer"). This
         sprite symbol is mono-only and intended for chrome (admin
         headers, breadcrumbs, future settings rows). -->
    <symbol id="icon-portainer" viewBox="0 0 169 219" fill="currentColor">
      <path d="M0.724609 0H80.925C136.261 0 168.905 17.2947 168.905 73.6996V75.627C168.905 132.207 136.331 149.327 80.9951 149.327H63.4901V218.05H0.724609V0ZM77.2453 101.14C94.3823 101.14 103.406 94.7791 103.406 75.7672V73.5769C103.406 54.6526 94.3823 48.1693 77.2453 48.1693H63.5077V101.122H77.2453V101.14Z"/>
      <path opacity="0.55" d="M117.222 167.329H168.642V218.618H117.222V167.329Z"/>
    </symbol>

    <!-- Brand: Authentik mono. Same geometry as the official brand
         authentik.svg; the single path uses `currentColor`. Used in
         the Admin → Authentik OIDC header. The brand-coloured
         authentik.svg remains in static/img/icons/ for the login
         SSO button + profile auth-source badge where the orange-red
         brand colour is a useful identification cue. -->
    <symbol id="icon-authentik" viewBox="0 0 512 512" fill="currentColor">
      <path d="M511.8 131.1c-.4-3.6-1.1-7.2-2-10.8-.3-1.1-.7-2.3-1-3.4-.1-.2-.2-.5-.3-.8-.1-.6-.3-1.1-.5-1.7s-.4-1.2-.6-1.7c-.2-.6-.5-1.2-.7-1.8-.3-.6-.6-1.2-.8-1.8-2-4.8-4.4-9.3-7.3-13.6l-.1-.1c-.8-1.1-1.5-2.1-2.3-3.2-.7-.9-1.3-1.8-2-2.6-.8-.9-1.6-1.9-2.4-2.8-.7-.9-1.6-1.8-2.4-2.6-3.4-3.4-7.1-6.6-11-9.4-.9-.6-1.8-1.3-2.8-1.9-1.1-.7-2.2-1.3-3.3-2-2.1-1.2-4.3-2.4-6.5-3.4-.7-.4-1.4-.7-2.1-1-3.1-1.3-6.2-2.5-9.4-3.4-1.2-.4-2.4-.7-3.7-1-.6-.1-1.2-.3-1.8-.4-3.6-.8-7.2-1.3-10.9-1.6l-1.6-.1h-.8c-1.2-.1-2.5-.1-3.7-.1H200.5c-1.3 0-2.5 0-3.7.1h-.8l-1.6.1c-3.7.3-7.3.8-10.9 1.6-.6.1-1.2.2-1.8.4-1.2.3-2.5.6-3.7 1-3.2.9-6.3 2.1-9.4 3.4-.7.3-1.4.7-2.1 1-2.3 1-4.4 2.2-6.5 3.4-1.1.6-2.2 1.3-3.3 2-.9.6-1.9 1.2-2.8 1.9-3.4 2.4-6.6 5.1-9.6 8-.5.5-1 .9-1.4 1.4l-.1.1c-.8.8-1.6 1.7-2.4 2.6s-1.6 1.9-2.4 2.8c-.7.9-1.3 1.7-2 2.6-.8 1.1-1.6 2.1-2.3 3.2l-.1.1c-2.9 4.3-5.3 8.9-7.3 13.6-.3.6-.6 1.2-.8 1.8s-.5 1.2-.7 1.8-.4 1.2-.6 1.7c-.1.6-.3 1.1-.5 1.7-.1.2-.2.5-.3.8-.4 1.1-.7 2.3-1 3.4-.9 3.5-1.6 7.1-2 10.8-.3 3-.5 6.1-.5 9.2v94.4c-.8-1.1-1.5-2.2-2.3-3.2-12.6-17.1-31.4-34.3-52.3-34.3-24 0-45.9 13.2-57.3 34.2h-.1C-15.9 273 17 329 65.3 327.8c37.4 0 68.2-55.5 68.2-65.3 0-3.6-4.2-13.5-11.5-24.5h131.6v-78.2h26.3v32.4h17.9v-32.4h28.7v19h17.9v-19h34v139H120v72.8c0 44.3 36 80.4 80.4 80.4h34.1v-78.8h163V452h34.1c44.3 0 80.4-36.1 80.4-80.4V140.3c0-3.1-.2-6.1-.2-9.2M38.2 231.6c13.6-11.6 33.1-15 47.2 0h.1c10.7 9.7 19.9 23.6 23.2 30.8-41.9 87.5-115.2 13-70.5-30.8"/>
    </symbol>

    <!-- AI provider mono brand icons. Each renders as a recognisable
         silhouette using `currentColor` so the symbol adopts whatever
         text colour wraps it. The brand-coloured versions stay under
         static/img/icons/ for the resolver / login / brand-icon paths
         where colour matters; these sprite copies are mono-only and
         intended for chrome (per-provider config cards in the AI tab).
         viewBox normalised to 24x24 for consistency with the other
         Lucide-style icons. -->

    <!-- Claude / Anthropic — burst-of-petals logomark, simplified
         to 8 elongated triangles radiating from centre. -->
    <symbol id="icon-claude" viewBox="0 0 24 24" fill="currentColor">
      <path d="M12 2 L13 9 L20 6 L14.5 11 L22 12 L14.5 13 L20 18 L13 15 L12 22 L11 15 L4 18 L9.5 13 L2 12 L9.5 11 L4 6 L11 9 Z"/>
    </symbol>

    <!-- Gemini — Google's 4-point sparkle / star with concave sides.
         Iconic "AI sparkle" mark. -->
    <symbol id="icon-gemini" viewBox="0 0 24 24" fill="currentColor">
      <path d="M12 2 C12 7 17 12 22 12 C17 12 12 17 12 22 C12 17 7 12 2 12 C7 12 12 7 12 2 Z"/>
    </symbol>

    <!-- ChatGPT / OpenAI — interlocking knot / hexagonal ring
         silhouette. Simplified to a single hexagonal outline + an
         inner hexagram so the mark reads as the OpenAI knot at small
         sizes without rendering all six interlocking petals. -->
    <symbol id="icon-chatgpt" viewBox="0 0 24 24" fill="none" stroke="currentColor" stroke-width="1.6" stroke-linejoin="round">
      <path d="M12 2 L21 7 L21 17 L12 22 L3 17 L3 7 Z"/>
      <path d="M12 6 L17.5 9 L17.5 15 L12 18 L6.5 15 L6.5 9 Z"/>
      <path d="M12 6 L12 18 M6.5 9 L17.5 15 M17.5 9 L6.5 15"/>
    </symbol>

    <!-- DeepSeek — stylised whale-tail curl. The brand logo is a
         circular mark with a whale silhouette inside; this mono
         version keeps the signature curl shape. -->
    <symbol id="icon-deepseek" viewBox="0 0 24 24" fill="none" stroke="currentColor" stroke-width="1.6" stroke-linecap="round" stroke-linejoin="round">
      <circle cx="12" cy="12" r="10"/>
      <path d="M6 14 C9 9 13 9 16 12 C14 14 12 15 8 14"/>
      <path d="M16 12 L18 10"/>
      <circle cx="14" cy="11" r="0.6" fill="currentColor"/>
    </symbol>

    <!-- Lucide icons used by the Settings-as-Code (Admin → Config Backup)
         tab + general file-handling affordances elsewhere. -->
    <symbol id="icon-save" viewBox="0 0 24 24" fill="none" stroke="currentColor" stroke-width="2" stroke-linecap="round" stroke-linejoin="round"><path d="M19 21H5a2 2 0 0 1-2-2V5a2 2 0 0 1 2-2h11l5 5v11a2 2 0 0 1-2 2z"/><polyline points="17 21 17 13 7 13 7 21"/><polyline points="7 3 7 8 15 8"/></symbol>
    <symbol id="icon-download" viewBox="0 0 24 24" fill="none" stroke="currentColor" stroke-width="2" stroke-linecap="round" stroke-linejoin="round"><path d="M21 15v4a2 2 0 0 1-2 2H5a2 2 0 0 1-2-2v-4"/><polyline points="7 10 12 15 17 10"/><line x1="12" y1="15" x2="12" y2="3"/></symbol>
    <symbol id="icon-upload" viewBox="0 0 24 24" fill="none" stroke="currentColor" stroke-width="2" stroke-linecap="round" stroke-linejoin="round"><path d="M21 15v4a2 2 0 0 1-2 2H5a2 2 0 0 1-2-2v-4"/><polyline points="17 8 12 3 7 8"/><line x1="12" y1="3" x2="12" y2="15"/></symbol>
    <symbol id="icon-folder" viewBox="0 0 24 24" fill="none" stroke="currentColor" stroke-width="2" stroke-linecap="round" stroke-linejoin="round"><path d="M22 19a2 2 0 0 1-2 2H4a2 2 0 0 1-2-2V5a2 2 0 0 1 2-2h5l2 3h9a2 2 0 0 1 2 2z"/></symbol>
    <symbol id="icon-refresh-cw" viewBox="0 0 24 24" fill="none" stroke="currentColor" stroke-width="2" stroke-linecap="round" stroke-linejoin="round"><polyline points="23 4 23 10 17 10"/><polyline points="1 20 1 14 7 14"/><path d="M3.51 9a9 9 0 0 1 14.85-3.36L23 10"/><path d="M20.49 15a9 9 0 0 1-14.85 3.36L1 14"/></symbol>
    <symbol id="icon-rotate-ccw" viewBox="0 0 24 24" fill="none" stroke="currentColor" stroke-width="2" stroke-linecap="round" stroke-linejoin="round"><path d="M3 12a9 9 0 1 0 3-6.7L3 8"/><path d="M3 3v5h5"/></symbol>
    <symbol id="icon-play" viewBox="0 0 24 24" fill="none" stroke="currentColor" stroke-width="2" stroke-linecap="round" stroke-linejoin="round"><polygon points="5 3 19 12 5 21 5 3" fill="currentColor"/></symbol>
    <symbol id="icon-edit" viewBox="0 0 24 24" fill="none" stroke="currentColor" stroke-width="2" stroke-linecap="round" stroke-linejoin="round"><path d="M11 4H4a2 2 0 0 0-2 2v14a2 2 0 0 0 2 2h14a2 2 0 0 0 2-2v-7"/><path d="M18.5 2.5a2.121 2.121 0 0 1 3 3L12 15l-4 1 1-4 9.5-9.5z"/></symbol>
    <symbol id="icon-eye" viewBox="0 0 24 24" fill="none" stroke="currentColor" stroke-width="2" stroke-linecap="round" stroke-linejoin="round"><path d="M1 12s4-8 11-8 11 8 11 8-4 8-11 8-11-8-11-8z"/><circle cx="12" cy="12" r="3"/></symbol>
    <symbol id="icon-trash-2" viewBox="0 0 24 24" fill="none" stroke="currentColor" stroke-width="2" stroke-linecap="round" stroke-linejoin="round"><polyline points="3 6 5 6 21 6"/><path d="M19 6l-1 14a2 2 0 0 1-2 2H8a2 2 0 0 1-2-2L5 6"/><path d="M10 11v6"/><path d="M14 11v6"/><path d="M8 6V4a2 2 0 0 1 2-2h4a2 2 0 0 1 2 2v2"/></symbol>

  </defs>
</svg>
