<svg xmlns="http://www.w3.org/2000/svg" viewBox="0 0 4943 599"><path fill="#8b8d8f" d="M225.62 0h21.63c21.15 1.18 42.27 4.52 62.37 11.32 32.18 10.56 61.32 29.32 85.63 52.76-14.94 15.04-29.95 30.01-44.96 44.98-20.84-19.59-46.44-34.37-74.4-40.89-34.03-7.99-70.61-5.66-103.03 7.63-33.03 13.35-61.36 37.85-79.52 68.5-18.57 30.92-26.69 67.85-23.38 103.73 2.55 28.88 12.5 57.11 28.91 81.03 18.04 26.43 43.86 47.51 73.5 59.64 31.27 13.01 66.35 15.25 99.49 9.16 28.01-5.06 54.5-18.24 75.29-37.71 12.12-10.65 21.77-24.03 28.13-38.86 6.13-13.99 9.75-28.94 11.88-44.03-50.55-.03-101.1.01-151.65-.02-.02-21.24-.02-42.49 0-63.73 71.47-.03 142.94.01 214.42-.02 1.6 9.1 2.48 18.32 2.77 27.55 1.47 40.96-6.02 82.91-25.57 119.22-13.37 25.04-33.42 45.94-55.86 63.06-28.21 21.35-62.26 34.36-97.23 38.99-32.64 4.35-66.23 3.34-98.12-5.21-59.13-15.37-111.56-54.61-143.06-106.94C13.8 318.77 2.39 282.72.31 246.03.2 237.02.22 227.99.3 218.98c1.53-28.31 8.69-56.26 20.59-81.98 19.75-42.7 52.74-79.04 93.07-103.21C147.6 13.44 186.36 1.8 225.62 0zm1231.89 18.76c21.66-.02 43.32-.02 64.98 0 .03 145.65-.02 291.3.03 436.95-21.68.07-43.35.04-65.03.02.03-145.66-.01-291.32.02-436.97zM2161 38.01c39.42-4.28 80.59.05 116.6 17.42 23.8 11.33 44.7 28.2 61.9 48.09-12.07 12.14-24.61 23.82-36.78 35.87-10.78-13.36-23.75-25.04-38.67-33.59-31.27-18.12-69.14-21.77-104.38-16.34-35.51 5.43-68.36 24.36-91.88 51.35-21.24 23.8-33.5 54.72-36.84 86.27-3.8 36.29.44 74.48 18.11 106.89 15.88 29.05 41.56 52.56 71.57 66.42 18.94 8.66 39.66 13.12 60.43 13.9 32.44 1.6 65.52-6.43 92.91-24.08 15.24-9.64 28.81-21.8 40.65-35.37 12.4 12.19 24.61 24.59 36.95 36.85-16.74 20.2-37.7 36.78-60.94 48.89-31.13 16.56-66.49 24.75-101.7 24.42-35.47.36-71.32-7.33-102.67-24.18-29.2-15.68-54.34-38.6-73.52-65.57-21.11-29.75-33.15-65.44-36.2-101.68-3.42-40.02 1.77-81.41 19.15-117.9 15.53-32.91 40.29-61.15 69.9-82.15 28.02-19.86 61.31-31.88 95.41-35.51zm224.76 7.75c17.57-.02 35.15-.02 52.73 0 .02 43.41.01 86.83.01 130.25-.53 12.75-1.53 25.47-2.15 38.22 1.37-.03 2.37-.65 3-1.86 8.03-13.31 20.17-23.68 33.47-31.48 13.7-8.16 29.22-13.29 45.13-14.59 25.56-1.69 52.73 2.52 73.92 17.8 21.16 15.22 34.15 39.69 39.24 64.89 2.73 13.12 3.52 26.58 3.39 39.97-.01 55.68.01 111.36-.01 167.03-17.67 0-35.33.04-53-.01.02-46.99 0-93.98.01-140.96-.23-13.99.72-28.05-1.18-41.96-2.04-15.74-7.67-31.84-19.57-42.85-11.34-10.64-27.1-15.04-42.32-15.79-15.55-1.15-31.75 2.39-44.46 11.68-13.27 9.68-22.88 23.75-28.93 38.88-5.03 12.69-6.66 26.41-6.55 39.98.02 50.35.01 100.69 0 151.03-17.58.01-35.16.02-52.74 0 0-136.74-.01-273.49.01-410.23zm2424.25 43.49h52.98c.03 28.58-.01 57.16.01 85.75 22.91.01 45.83-.02 68.75.01-.02 16.16.01 32.33-.02 48.49-22.9 0-45.81.01-68.7-.01-.05 48.85-.05 97.69 0 146.54.4 11.14 2.55 23.12 10.27 31.67 5.64 6.46 14.2 9.61 22.6 10.26 9.79.76 19.84-.51 28.93-4.37 6.02 15.01 12.14 29.98 18.17 44.98v.63c-16.41 6.7-34.47 8.03-52 7.03-17.13-1.05-34.59-5.33-48.7-15.48-13.67-9.54-23.2-24.25-27.8-40.14-5.64-18.34-4.39-37.7-4.5-56.61-.02-41.5.02-83-.02-124.5-16.41 0-32.82.01-49.22-.01-.03-16.16-.02-32.32-.01-48.48 16.41-.03 32.83 0 49.25-.01.01-28.59-.02-57.17.01-85.75zM618.44 165.63c36.28-2.34 73.51 8.27 102.33 30.61 24.03 18.42 41.94 44.57 50.5 73.61 11.24 38.11 8.01 80.69-10.47 116.04-14.53 28.16-38.69 51.14-67.36 64.56-38.72 18.22-85.14 19.17-124.6 2.67-30.27-12.48-56.06-35.48-71.8-64.19-19.86-35.89-23.66-79.79-12.12-118.98 9.33-31.77 29.89-60.12 57.36-78.65 22.4-15.32 49.1-24.1 76.16-25.67m-2.94 59.9c-23.13 3.49-44.21 17.64-56.65 37.37-18.36 28.89-19.48 67.67-3.65 97.9 8.44 15.88 21.85 29.22 38.18 36.9 18.99 9.28 41.72 10.42 61.61 3.29 15.98-5.62 29.96-16.44 39.82-30.18 19.86-27.76 22.47-66.21 8.5-97.08-6.9-15.03-18.1-28.15-32.2-36.87-16.37-10.28-36.52-14.43-55.61-11.33zm327.95-59.91c31.71-1.96 64.12 5.86 91 22.93 26.35 16.56 47.07 41.88 58.01 71.02 17.63 46.59 12 102.03-17.04 142.87-15.88 22.65-38.41 40.49-64 50.95-30.61 12.63-65.31 14.75-97.36 6.61-30.03-7.61-57.6-24.86-77.25-48.85-22.17-26.71-33.97-61.53-33.57-96.16-.38-35.58 12.04-71.38 35.38-98.37 25.95-30.5 64.94-48.98 104.83-51m-4 60.02c-20.61 3.37-39.62 15.06-52.09 31.77-21 27.86-24.06 67.4-9.68 98.89 8.69 19.1 24.54 34.98 43.98 43.04 15.86 6.71 33.91 8.1 50.61 3.89 23.87-5.83 44.25-23.15 54.84-45.19 13.84-28.73 12.84-64.37-3.15-92.05-7.93-13.58-19.66-25.02-33.66-32.24-15.46-8.15-33.63-11.04-50.85-8.11zm258.2-39c28.32-17.9 63.49-25.72 96.51-18.79 17.64 3.76 34.58 11.73 47.95 23.96 2.84 2.49 4.98 5.84 8.48 7.52.34-8.27.06-16.55.17-24.82 20.91-.02 41.82-.02 62.73 0 .02 75.15 0 150.29.01 225.44-.18 20.7.53 41.43-.78 62.11-1.57 21.74-6.14 43.47-15.35 63.32-11.27 24.67-30.73 45.68-55.07 57.85-19.12 9.96-40.6 14.54-62 15.77h-23.59c-2.25-.56-4.52-1.05-6.8-1.34-19.19-2.51-37.8-9.21-54.23-19.42-25.59-15.88-45.82-40.02-57.51-67.73 19.19-7.93 38.32-16 57.53-23.87 5.54 12.71 13.54 24.46 23.98 33.65 12.47 11.2 28.63 18.29 45.39 19.43 17.15 1.03 35.03-1.86 49.97-10.7 15.03-8.79 25.63-23.91 30.64-40.42 6.2-18.81 5.12-38.82 4.98-58.32-3.09 1.16-4.81 4.09-7.08 6.27-10.07 10-22.63 17.28-35.97 21.99-32.43 11.35-69.04 6.69-99.32-8.78-28.39-14.57-51.85-38.49-65.88-67.16-18.06-36.02-20.44-79.34-7.15-117.31 11.09-32.27 33.5-60.5 62.39-78.65m65.56 38.67c-12.54 1.74-24.59 6.71-34.76 14.24-14.76 10.9-25.44 26.85-30.87 44.3-6.77 21.77-6.45 45.8 1.38 67.25 6.1 16.79 17.39 31.77 32.31 41.68 13.94 9.3 30.98 13.81 47.71 12.67 17.47-.99 34.38-8.39 47.27-20.17 14.66-13.27 24.08-31.78 27.48-51.16 3.26-19.07 1.56-39.13-5.72-57.12-5.9-14.75-15.75-28.01-28.59-37.44-15.92-11.83-36.56-17.21-56.21-14.25zm346.72-32.43c34.21-25.91 80.92-34.24 122.04-22.05 32.09 9.51 58.62 33 75.86 61.25 9.08 14.19 14.67 30.15 20.91 45.69-66.66 27.59-133.34 55.16-200.01 82.74 7.31 14.42 18.03 27.56 32.33 35.48 15.95 8.99 35 11.07 52.94 8.75 15.4-2.04 30.05-8.81 41.76-19 7.31-6.24 13.47-13.71 18.94-21.59 17.05 11.45 34.31 22.61 51.2 34.31-19.45 28.61-48.59 50.88-81.97 60.45-35.79 10.13-75.42 7.38-109.02-8.82-29.08-13.81-53.11-37.85-67.05-66.85-17.15-34.82-19.52-75.93-9.54-113.18 8.22-30.4 26.25-58.31 51.61-77.18m66.66 33.53c-19.35 5.83-36.46 18.96-46.85 36.32-8.68 14.22-12.27 31.06-12 47.6 44.55-18.41 89.06-36.95 133.59-55.44-4.51-10.79-13.52-19.21-23.9-24.33-15.6-7.71-34.2-9.27-50.84-4.15zm1306.74-59.88c22.55-1.77 45.67.25 67.03 8.01 31.25 11.2 57.28 34.88 73.43 63.66 18.5 33.09 22.26 72.86 15.91 109.79-8.1 47.03-41.14 89.47-85.72 107.1-22.14 8.85-46.41 11.18-70.04 9.45-19.85-1.54-39.5-6.93-56.93-16.63-24.86-13.92-45.12-35.74-57.8-61.2-9.06-18.22-13.86-38.38-15.14-58.65-1.29-21.49.55-43.35 7.15-63.92 9.46-30.08 29.42-56.6 55.28-74.55 19.66-13.57 43.09-21.19 66.83-23.06m7.11 48.06c-33.71 2.36-63.88 26.49-76.2 57.55-7.52 19.09-8.94 40.15-6.61 60.39 2.19 18.18 8.89 36.04 20.63 50.24 11.27 13.6 26.08 24.6 43.03 29.95 17.54 5.47 36.78 5.38 54.28-.22 17.74-5.83 33.21-17.68 44.51-32.44 11.39-14.96 17.41-33.48 18.99-52.1 1.57-20.05-.32-40.81-8.6-59.34-7.88-17.85-21.77-32.77-38.48-42.7-15.42-9.11-33.75-12.89-51.55-11.33zm313.51-47.39c8.27-1.51 16.75-1.41 25.13-.95 17.93 1.17 36.06 6.2 50.63 17.03 12.52 9.14 21.86 22.1 28.04 36.22 10.06-15.77 23.37-29.74 39.67-39.1 17.94-10.43 38.96-14.82 59.59-14.42 19.68-.03 39.96 4.26 56.41 15.51 12.13 8.15 21.39 19.99 28.04 32.9 8.08 15.7 12.12 33.21 13.7 50.72 1.23 13.27.74 26.61.84 39.92V456h-53c0-55.68-.01-111.35.01-167.02-.48-18.04-2.19-37.18-12.22-52.72-9.48-14.42-27.05-21.06-43.72-21.8-16.77-1.55-34.22 3.48-46.84 14.81-13.97 12.54-23.84 29.53-28.23 47.75-2.12 8.82-2.88 17.92-2.76 26.97.02 50.67.01 101.33.01 152-17.67.01-35.34.02-53 0-.02-57.34.05-114.68-.04-172.02-.91-18.04-3.36-37.54-15.3-51.92-11.91-13.94-31.27-18.24-48.87-17.78-15.34.32-30.36 6.7-41.23 17.52-14.66 14.47-24.43 33.87-27.19 54.3-1.17 8.24-1.17 16.6-1.12 24.91-.01 48.33.01 96.66-.01 144.99-17.58.01-35.16.02-52.74 0-.01-93.66-.01-187.32 0-280.98 16.83-.02 33.66-.02 50.5 0 .02 13.06-.03 26.12.02 39.19 2.33.27 3.13-2.05 4.28-3.59 8.91-13.35 21.84-23.54 35.77-31.24 10.46-5.8 21.81-10.14 33.63-12.17zm446.43 1.35c19.38-3.68 39.47-3.4 58.87.08 20.06 3.68 39.35 12 55.3 24.8 23.43 18.61 39.5 45.62 46.29 74.64 4.36 18.67 6.3 38.08 4.64 57.22-73.84-.09-147.69-.02-221.53-.03.94 17.04 5 34.2 13.88 48.92 8.92 14.76 22.38 26.63 37.81 34.24 19.24 9.35 41.7 10.29 62.33 5.59 14.02-3.24 27.22-10.48 36.86-21.26 6.41-7.05 11.27-15.4 15-24.14 15.78 6.42 31.49 13.03 47.25 19.55-6.33 15.12-15.8 28.89-27.61 40.25-11.1 10.75-23.9 19.93-38.16 25.98-18.03 7.7-37.79 10.86-57.32 10.62-22.59.22-45.42-4.22-65.74-14.25-26.01-12.94-47.13-34.89-60.49-60.56-8.64-16.84-13.73-35.38-15.68-54.17-2.23-21.5-1.1-43.47 4.45-64.4 8-30.36 25.88-57.96 50.05-77.96 15.49-12.67 34.15-21.36 53.8-25.12m-21.96 62.77c-15.69 12.57-26.01 30.86-30.96 50.18 54.13-.01 108.26.03 162.39-.02-1.17-12.62-6.05-24.72-13.47-34.94-6.13-8.38-13.32-16.28-22.41-21.48-14.44-8.45-31.54-10.9-48.03-10.81-17.17.19-34.27 6.1-47.52 17.07zm324.45-62.63c18-3.34 36.56-3.58 54.7-1.16 20.91 2.86 41.34 10.76 57.81 24.12 18.4 14.36 32.86 33.61 41.67 55.22-16.18 6.66-32.28 13.53-48.49 20.11-6.23-15.22-15.87-29.5-29.58-38.91-15.23-10.7-34.35-14.44-52.69-13.71-15.81.69-31.23 6.52-43.77 16.12-14.81 11.17-26.73 26.36-33.24 43.78-7.13 18.84-8.47 39.52-5.86 59.38 2.5 18.56 9.97 36.56 22.18 50.84 12.7 15.06 29.83 27.14 49.46 30.81 15.35 2.81 31.4 1.5 46.31-3.02 16.26-5.01 30.57-15.75 40.1-29.84 3.97-5.77 7.23-12.01 10.03-18.44 15.75 6.7 31.5 13.41 47.23 20.18-6.31 15.11-15.39 29.07-26.79 40.84-11.51 11.85-24.88 22.12-40.05 28.82-18.44 8.16-38.78 11.45-58.86 11.18-22.29.18-44.77-4.31-64.83-14.15-26.46-13.11-48.15-35.15-61.92-61.18-9.84-18.72-15.16-39.63-16.58-60.69-1.44-21.36.36-43.1 6.69-63.62 8.88-29.1 27.54-54.97 51.92-73.09 16.06-11.92 34.91-19.93 54.56-23.59zm267.45.79c21.13-4.46 43.16-4.7 64.43-1.05 32.05 5.68 62.64 24.04 79.7 52.21 11.86 19.52 16.11 42.69 16.26 65.28.09 56.69.01 113.38.04 170.07-16.92.02-33.84.01-50.75.01-.03-13.07.02-26.14-.02-39.21-2.68-.15-3.53 2.58-4.86 4.29-10.61 15.07-25.08 27.61-42.08 34.9-19.49 8.53-41.28 10.33-62.27 8.37-20.51-2.01-40.66-9.44-56.79-22.4-12.58-9.8-22.64-22.96-27.95-38.04-5.83-16.54-6.64-34.62-3.67-51.82 3.17-18.4 12.97-35.49 27.12-47.64 13.55-11.65 29.74-20.09 46.88-25.08 21.51-6.29 44.25-7.43 66.51-5.6 19.81 1.65 39.71 6.32 57.11 16.25.34-11.29-.29-22.86-4.49-33.47-4.62-12.24-13.61-22.5-24.46-29.64-17.42-11.78-39.65-14.85-60.08-11.22-15.26 2.91-30.18 9.97-40.62 21.69-4.62 5.12-8.02 11.22-10.46 17.64-16.12-6.96-32.28-13.83-48.4-20.78 6.57-16.82 18.72-30.87 32.57-42.2 13.17-11.33 29.31-18.96 46.28-22.56m5.74 152.54c-15.01 4.82-28.2 15.53-35.38 29.61-6.55 13.28-6.84 30.44 2.08 42.73 5.96 8.24 15.06 13.6 24.32 17.44 17.18 6.7 36.72 6.39 54.07.42 16.68-5.92 31.27-17.05 42.44-30.69 10.57-13.03 16.44-29.65 16.47-46.43-16.28-13.08-37.69-17.18-58.05-18.13-15.43-.71-31.2.19-45.95 5.05zm246.24-144.8c22.06-9.79 46.68-12.62 70.59-10.75 19.12 1.59 38 7.18 54.5 17.06 18.43 10.79 33.02 27.95 40.61 47.93-15.36 6.27-30.68 12.65-46.03 18.94-5.43-13.31-15.64-24.75-28.89-30.59-11.29-5.05-23.81-6.86-36.1-6.58-15.78-.08-32.36 3.73-44.62 14.12-8.1 6.78-11.74 18.23-9.06 28.44 1.8 7.68 7.72 13.66 14.34 17.58 9.14 5.49 19.7 7.72 29.97 10.1 18.22 4.41 36.52 8.51 54.71 13.09 17.91 4.93 35.63 12.97 48.56 26.68 11.36 11.88 19.17 27.36 21.08 43.76 1.93 16.61-.87 34.01-9.28 48.59-8.83 15.42-22.81 27.41-38.35 35.73-18.8 9.78-40.2 13.79-61.26 13.69-20.87.31-42.11-3.07-61.06-12.08-13.66-6.45-25.62-16.03-36.05-26.86-11.37-11.98-20.59-26.06-26.79-41.38 15.74-6.48 31.43-13.09 47.19-19.52 6.88 16.21 17.4 31.47 32.49 41.02 17.31 11.05 38.89 13.55 58.9 10.49 13-2.15 26.17-7.89 34.38-18.57 8.04-10.58 8.52-26.3 1.12-37.33-7.84-11.3-21.51-16.45-34.33-19.68-14.77-3.54-29.51-7.15-44.25-10.72-6.63-1.64-13.32-3.03-19.77-5.21-16.81-5.65-32.34-14.84-45.78-26.37-13.6-11.83-20.93-29.91-20.64-47.81-.63-16.34 4.65-32.9 15.09-45.55 10.18-12.56 24.12-21.59 38.73-28.22zm-1766.29-7.84c7.24-1.33 14.65-1.33 22-.95 10.61.65 21.31 2.44 31.13 6.69-6.64 16.52-13.43 32.97-20.08 49.47-19.77-6.17-42.58-6.01-60.85 4.56-14.08 8.19-25.89 20.6-32.52 35.54-7.64 16.33-7.81 34.69-7.44 52.34 0 46.32.01 92.64 0 138.96-17.67.01-35.34.02-53 0 0-93.66.01-187.32 0-280.98 16.91-.03 33.83-.01 50.75-.01.02 15.41-.04 30.81.02 46.21 2.3.21 2.59-2.24 3.39-3.84 5.89-14.56 17.74-25.96 31.01-33.96 10.94-6.65 22.94-11.76 35.59-14.03z"/></svg>