<svg xmlns="http://www.w3.org/2000/svg" viewBox="0 0 24 24" preserveAspectRatio="xMidYMid meet" focusable="false">
  <g fill="none" fill-rule="evenodd">
    <rect width="24" height="24"/>
    <circle cx="12" cy="12" r="11" fill="#3B78E7"/>
    <path fill="#FFF" d="M12,1 C18.075,1 23,5.925 23,12 C23,18.075 18.075,23 12,23 L12,17.841 L15.099,17.841 C15.345,18.828 16.231,19.562 17.294,19.562 C18.547,19.562 19.562,18.547 19.562,17.294 C19.562,16.041 18.547,15.025 17.294,15.025 C16.231,15.025 15.345,15.759 15.099,16.746 L12,16.746 L12,11.791 L15.099,11.791 C15.345,12.778 16.231,13.513 17.294,13.513 C18.547,13.513 19.562,12.497 19.562,11.244 C19.562,9.991 18.547,8.975 17.294,8.975 C16.231,8.975 15.345,9.709 15.099,10.696 L12,10.696 L12,1 Z M18.05,17.2938 C18.05,17.7118 17.711,18.0498 17.294,18.0498 C16.876,18.0498 16.538,17.7118 16.538,17.2938 C16.538,16.8758 16.876,16.5378 17.294,16.5378 C17.711,16.5378 18.05,16.8758 18.05,17.2938 Z" opacity=".8"/>
    <path fill="#FFF" d="M7.254,16.746 L7.254,11.792 L12,11.792 L12,16.746 L7.254,16.746 Z M7.25395685,17.8414 L12,17.8414 L12,23.0004 C5.92494477,23.0004 0.9999,18.0754 0.9999,12.0004 C0.9999,5.9244 5.92494477,1.0004 12,1.0004 L12,10.6964 L7.25395685,10.6964 L7.25395685,8.9004 C8.24096583,8.6544 8.9749725,7.7694 8.9749725,6.7064 C8.9749725,5.4534 7.95896326,4.4374 6.70595187,4.4374 C5.45294048,4.4374 4.43793125,5.4534 4.43793125,6.7064 C4.43793125,7.7694 5.17193793,8.6544 6.1589469,8.9004 L6.1589469,17.8414 L6.38594896,17.8414 L7.25395685,17.8414 Z"/>
  </g>
</svg>
