<?xml version="1.0" encoding="UTF-8" standalone="no"?>
<svg xmlns="http://www.w3.org/2000/svg"
     width="1000"
     height="229.088"
     viewBox="0 0 264.58333 60.612868"
     version="1.1">
  <title>Motorola</title>
  <g transform="translate(0,-236.38712)">
    <path d="m 168.15359,274.3266 c -4.60696,0 -8.35574,-3.74879 -8.35574,-8.35576 0,-4.60693 3.74878,-8.35573 8.35574,-8.35573 4.60694,0 8.35575,3.7488 8.35575,8.35573 0,4.65212 -3.79396,8.35576 -8.35575,8.35576 m 0,-21.67976 c -7.36208,0 -13.32401,5.96193 -13.32401,13.324 0,7.36209 5.96193,13.32402 13.32401,13.32402 7.36208,0 13.32401,-5.96193 13.32401,-13.32402 0,-7.31691 -5.96193,-13.324 -13.32401,-13.324" style="fill:#000000;stroke-width:0.45166153"/>
    <path d="m 151.84862,275.00408 h 1.08398 v 5.01345 h -1.08398 c -5.73611,0 -10.43339,-4.69728 -10.43339,-10.43339 v -22.89923 h 5.01345 v 6.68459 h 6.45875 v 5.01345 h -6.45875 v 11.24636 c 0,2.9358 2.43897,5.37477 5.41994,5.37477" style="fill:#000000;stroke-width:0.45166153"/>
    <path d="m 212.91324,274.3266 c -4.60694,0 -8.35573,-3.74879 -8.35573,-8.35576 0,-4.60693 3.74879,-8.35573 8.35573,-8.35573 4.60695,0 8.35574,3.7488 8.35574,8.35573 -0.0452,4.65212 -3.79396,8.35576 -8.35574,8.35576 m 0,-21.67976 c -7.36208,0 -13.32401,5.96193 -13.32401,13.324 0,7.36209 5.96193,13.32402 13.32401,13.32402 7.36209,0 13.32402,-5.96193 13.32402,-13.32402 0,-7.31691 -5.96193,-13.324 -13.32402,-13.324" style="fill:#000000;stroke-width:0.45166153"/>
    <path d="m 251.25932,274.3266 c -4.60695,0 -8.35574,-3.74879 -8.35574,-8.35576 0,-4.60693 3.74879,-8.35573 8.35574,-8.35573 4.60694,0 8.35573,3.7488 8.35573,8.35573 0,4.65212 -3.79395,8.35576 -8.35573,8.35576 m 0,-21.67976 c -7.36209,0 -13.32402,5.96193 -13.32402,13.324 0,7.36209 5.96193,13.32402 13.32402,13.32402 3.25196,0 6.23293,-1.17431 8.53639,-3.11645 v 2.61963 h 4.78763 v -12.42069 c 0,-0.13554 0,-0.271 0,-0.40651 0,-7.31691 -5.96194,-13.324 -13.32402,-13.324" style="fill:#000000;stroke-width:0.45166153"/>
    <path d="m 195.25327,252.64684 h 2.39383 v 5.01344 h -2.39383 c -2.98096,0 -5.41993,2.43897 -5.41993,5.41994 v 3.25196 6.18776 6.45876 h -5.01344 v -15.89848 c 0,-5.73611 4.69729,-10.43338 10.43337,-10.43338" style="fill:#000000;stroke-width:0.45166153"/>
    <rect x="229.57954" y="246.00742" width="5.0134435" height="32.880962" style="fill:#000000;stroke-width:0.45166153"/>
    <path d="m 108.0826,263.75772 v 15.85331 h -5.01343 v -15.85331 c 0,-2.98097 -2.43897,-5.41994 -5.41994,-5.41994 -2.980966,0 -5.419938,2.43897 -5.419938,5.41994 v 15.85331 H 87.21584 v -15.85331 c 0,-2.98097 -2.438972,-5.41994 -5.419938,-5.41994 -2.980966,0 -5.419939,2.43897 -5.419939,5.41994 v 15.85331 h -5.013434 v -15.85331 c 0,-5.73611 4.697269,-10.43339 10.388204,-10.43339 3.206794,0 6.007101,1.40015 7.949249,3.65846 1.942147,-2.25831 4.742437,-3.65846 7.949248,-3.65846 5.73609,0 10.43337,4.69728 10.43337,10.43339" style="fill:#000000;stroke-width:0.45166153"/>
    <path d="m 124.79407,275.00408 c -4.60694,0 -8.35573,-3.74879 -8.35573,-8.35574 0,-4.60694 3.74879,-8.35573 8.35573,-8.35573 4.60695,0 8.35576,3.74879 8.35576,8.35573 0,4.60695 -3.79396,8.35574 -8.35576,8.35574 m 0,-21.67975 c -7.40723,0 -13.36917,5.96193 -13.36917,13.32401 0,7.36209 5.96194,13.32402 13.32402,13.32402 7.36207,0 13.324,-5.96193 13.324,-13.32402 0.0452,-7.31691 -5.91676,-13.32401 -13.27885,-13.32401" style="fill:#000000;stroke-width:0.45166153"/>
    <path d="M 30.306486,236.38703 C 13.549846,236.38703 0,249.93687 0,266.69351 0,283.45015 13.549846,297 30.306486,297 c 16.756641,0 30.306487,-13.54985 30.306487,-30.30649 0,-16.66632 -13.36917,-30.30648 -30.306487,-30.30648" style="fill:#000000;stroke-width:0.45166153"/>
    <path d="m 39.339723,243.83943 -8.988068,29.80967 -0.04524,0.0452 -0.0903,-0.0452 -8.988067,-29.80967 -11.6076989,38.1654 h 2.1679749 c 0,0 1.445323,-6.63941 3.839126,-10.61403 1.309816,-2.16798 3.297133,-3.92946 5.961933,-3.8843 1.896978,0.0452 3.52296,1.08399 5.555428,3.92945 0.451673,0.63233 0.993667,1.67115 1.535661,2.6648 0.858142,1.67115 1.580812,3.38747 1.580812,3.38747 0,0 1.896979,-4.33595 3.116456,-6.05227 2.032486,-2.84546 3.658467,-3.88428 5.555446,-3.92945 2.6648,-0.0452 4.697268,1.71631 5.961932,3.8843 2.393803,3.97462 3.839126,10.61403 3.839126,10.61403 h 2.167975 z" style="fill:#ffffff;stroke-width:0.45166153"/>
  </g>
</svg>
