<?xml version="1.0" encoding="UTF-8"?>
<svg xmlns="http://www.w3.org/2000/svg" viewBox="0 0 240 240" role="img" aria-label="Telegram">
  <defs>
    <linearGradient id="tg-grad" x1="0.5" y1="0" x2="0.5" y2="1">
      <stop offset="0" stop-color="#2AABEE"/>
      <stop offset="1" stop-color="#229ED9"/>
    </linearGradient>
  </defs>
  <circle cx="120" cy="120" r="120" fill="url(#tg-grad)"/>
  <path fill="#fff" d="M54 117c35-13.6 58-22.6 70-27 33-13.7 40-16.1 44.5-16.2 1 0 3.2.2 4.7 1.4 1.2 1 1.6 2.4 1.7 3.4.2 1 .4 3.2.3 4.9-1.6 17-8.6 58.4-12.2 77.5-1.5 8.1-4.5 10.8-7.4 11.1-6.3.6-11.1-4.2-17.2-8.2-9.6-6.3-15-10.2-24.3-16.3-10.8-7.1-3.8-11 2.4-17.4 1.6-1.7 29.4-27 30-29.3.1-.3.1-1.4-.5-2-.6-.6-1.6-.4-2.3-.2-1 .2-16.3 10.4-45.9 30.6-4.3 3-8.3 4.4-11.8 4.3-3.9-.1-11.3-2.2-16.9-4-6.8-2.2-12.2-3.4-11.7-7.2.2-2 2.9-4 8.1-6z"/>
</svg>
